<svg version="1.1" id="Layer_1" xmlns="http://www.w3.org/2000/svg" xmlns:xlink="http://www.w3.org/1999/xlink" x="0px" y="0px"
	 width="100%" viewBox="0 0 512 512" enable-background="new 0 0 512 512" xml:space="preserve">
<path fill="#000000" opacity="1.000000" stroke="none" 
	d="
M353.000000,513.000000 
	C235.361923,513.000000 118.223839,513.000000 1.042876,513.000000 
	C1.042876,342.403564 1.042876,171.807114 1.042876,1.105330 
	C171.554749,1.105330 342.109589,1.105330 512.832214,1.105330 
	C512.832214,171.666534 512.832214,342.333252 512.832214,513.000000 
	C459.807037,513.000000 406.653534,513.000000 353.000000,513.000000 
M150.286102,113.726898 
	C139.012741,117.748993 127.469994,121.160347 116.547539,125.977997 
	C107.067055,130.159622 101.437889,138.081024 102.082039,148.982727 
	C102.747513,160.245422 103.501938,171.546768 105.122551,182.699692 
	C108.229080,204.078491 111.846771,225.386581 115.527870,246.676376 
	C116.812881,254.108261 118.423431,254.867905 125.791649,253.546066 
	C126.610062,253.399261 127.420418,253.202225 128.242188,253.080200 
	C140.761261,251.220993 140.947144,250.960983 141.010117,238.431335 
	C141.122803,216.004929 148.747452,197.121613 167.173309,183.389908 
	C183.626801,171.128082 201.540146,165.738144 221.515579,173.185715 
	C228.279053,175.707382 234.608932,179.611649 240.753082,183.491943 
	C244.397354,185.793442 246.756393,187.585632 249.982224,182.819290 
	C252.150833,179.615051 255.694305,177.307404 258.737762,174.734787 
	C275.390961,160.657745 294.025269,153.777252 316.301147,156.826782 
	C340.578461,160.150330 358.155426,174.690277 363.857697,198.781815 
	C367.407196,213.778076 368.040985,229.013596 365.289734,244.321762 
	C364.924530,246.353561 365.363678,249.903030 366.639252,250.630798 
	C374.167419,254.925949 380.904510,251.807343 382.883392,243.542542 
	C393.605743,198.760117 405.691833,154.222046 410.442719,108.272049 
	C411.571075,97.358498 410.517700,85.967033 408.749115,75.074471 
	C406.829956,63.254459 398.310883,56.780670 386.337219,57.178417 
	C374.581848,57.568920 362.523621,57.847973 351.202393,60.632191 
	C315.850250,69.326294 280.798828,79.238731 245.602173,88.570686 
	C214.098434,96.923508 182.556671,105.132866 150.286102,113.726898 
M285.208405,344.428284 
	C289.570160,345.987305 293.820831,348.324493 298.313599,348.966064 
	C314.817963,351.323029 331.451416,352.152527 348.015320,349.665375 
	C364.765808,347.150208 370.973541,341.166168 374.546722,324.407471 
	C376.660431,314.493988 378.263916,304.468323 379.937378,294.466400 
	C380.446533,291.423187 381.531952,290.227264 384.888550,290.631042 
	C391.152344,291.384521 393.287872,289.433411 393.938904,283.012848 
	C394.492096,277.557220 394.778992,272.074554 395.337524,266.619598 
	C395.903229,261.094360 394.592163,258.843781 389.010834,257.996460 
	C369.956909,255.103775 350.886871,252.304642 331.791473,249.701035 
	C312.479706,247.067947 293.320465,247.923904 274.643250,253.815811 
	C270.830811,255.018463 267.520660,257.804932 263.968079,259.842346 
	C261.040405,261.521362 258.257751,264.108307 255.127548,264.647156 
	C247.889786,265.893127 240.817444,265.139679 235.406937,259.033478 
	C234.347260,257.837555 232.796036,256.852661 231.278625,256.321411 
	C215.371811,250.752151 198.740494,249.714172 182.131790,249.270096 
	C173.708282,249.044891 165.190582,249.983612 156.808060,251.094772 
	C141.331207,253.146332 125.915695,255.668777 110.490623,258.096649 
	C106.867249,258.666992 104.831543,261.060028 105.095879,264.756195 
	C105.557465,271.210480 106.115326,277.669403 106.976654,284.080170 
	C107.768501,289.973816 109.549660,291.521088 115.214378,290.733704 
	C119.066360,290.198303 120.333755,291.762848 120.891579,295.058533 
	C122.528564,304.729858 124.223045,314.391602 125.923973,324.052002 
	C128.813675,340.464081 138.605469,349.413818 155.207977,349.905731 
	C168.973740,350.313629 182.772568,350.293243 196.537323,349.854065 
	C210.423859,349.410950 221.125778,343.399750 226.959793,330.145447 
	C228.300095,327.100403 229.875641,324.156281 231.403778,321.197113 
	C234.448090,315.301910 237.185715,309.210266 240.692810,303.601715 
	C244.993454,296.724182 253.205444,295.917664 258.321869,302.093475 
	C261.864838,306.370026 264.412323,311.559448 266.928680,316.579559 
	C271.839233,326.376038 275.571411,336.883301 285.208405,344.428284 
M148.997620,403.557190 
	C148.653061,389.252502 148.338455,374.946960 147.929245,360.644135 
	C147.872757,358.669128 147.729889,356.531860 146.929306,354.790466 
	C146.168823,353.136292 144.493439,351.902679 143.220352,350.484161 
	C142.536224,352.154572 141.175644,353.864746 141.271133,355.489319 
	C142.401703,374.722626 143.675064,393.948578 145.074768,413.164520 
	C145.695282,421.683380 146.487564,430.299438 154.422760,435.802582 
	C157.418213,437.879944 160.586136,439.733429 163.785934,441.487396 
	C191.173172,456.499420 219.540604,469.040710 250.007965,476.572510 
	C264.255035,480.094543 277.259430,479.362610 290.121521,471.148987 
	C307.218475,460.231018 324.813507,450.026215 342.657501,440.370636 
	C352.799103,434.882843 357.574951,426.978699 357.918457,416.014313 
	C358.439423,399.383728 358.632202,382.743011 359.022552,366.108002 
	C359.092590,363.124359 359.735107,360.130737 359.567169,357.172760 
	C359.444763,355.016663 358.424438,352.911560 357.804413,350.783722 
	C356.873871,352.823822 355.929047,354.857697 355.029327,356.911285 
	C354.906494,357.191681 355.016296,357.570770 355.004974,357.903717 
	C354.354980,377.014984 353.365967,396.123199 353.195312,415.238739 
	C353.110443,424.745209 348.967743,430.840454 341.097321,435.355225 
	C322.051208,446.280792 303.102997,457.377075 284.117340,468.407959 
	C275.883972,473.191650 267.370758,474.597137 257.809387,472.580902 
	C238.531250,468.515656 219.524719,463.622375 201.712952,455.147949 
	C187.445847,448.360016 173.535904,440.800018 159.640762,433.263153 
	C154.696930,430.581604 150.965073,426.344360 150.242447,420.416687 
	C149.599808,415.144989 149.396271,409.819794 148.997620,403.557190 
M127.969635,352.298676 
	C117.848503,344.771698 111.159843,334.873199 108.464554,322.590179 
	C105.696747,309.976654 103.156944,297.284332 104.581398,284.196930 
	C104.706520,283.047424 103.554451,281.758850 102.995605,280.534882 
	C101.810478,281.268402 99.831436,281.801453 99.586258,282.772339 
	C98.790649,285.922882 98.054070,289.287689 98.351326,292.471344 
	C98.888939,298.229095 100.134094,303.925781 101.182922,309.629791 
	C103.750336,323.592499 106.910629,337.343506 117.119141,348.122284 
	C120.701912,351.905151 124.484299,355.535583 130.018692,355.812500 
	C130.573593,355.175507 131.128494,354.538483 131.683395,353.901489 
	C130.615829,353.501251 129.548264,353.101013 127.969635,352.298676 
M381.963776,349.478394 
	C384.617340,346.078247 387.973785,343.016571 389.802612,339.219208 
	C397.624603,322.977539 400.454132,305.447906 401.840118,287.664734 
	C401.990265,285.738678 400.780548,283.573120 399.773315,281.756104 
	C399.370270,281.029053 397.638275,280.444458 396.824768,280.720215 
	C396.127258,280.956635 395.542053,282.491852 395.481079,283.487823 
	C394.925934,292.561798 394.961914,301.696808 393.928802,310.711243 
	C392.057495,327.039124 386.496796,341.688141 372.631134,351.954285 
	C371.612213,352.708740 370.941376,353.933289 370.108673,354.939301 
	C370.526855,355.432068 370.945068,355.924835 371.363251,356.417603 
	C374.729492,354.272766 378.095734,352.127960 381.963776,349.478394 
M241.218002,383.514801 
	C249.213547,386.061493 259.293304,382.787201 261.640656,376.872375 
	C261.365967,376.699615 261.103149,376.406982 260.814209,376.378387 
	C260.165314,376.314270 259.402710,376.169708 258.862305,376.427155 
	C252.753586,379.338104 246.844894,379.688080 240.799622,375.975677 
	C240.138885,375.569977 237.862839,377.794678 236.335999,378.799316 
	C237.730469,380.255646 239.124954,381.711945 241.218002,383.514801 
M260.775299,426.085449 
	C270.702911,424.278015 279.792633,420.808136 286.751068,413.076324 
	C284.875946,413.123260 283.393585,414.053284 281.778625,414.563843 
	C273.758423,417.099365 265.689819,419.481964 257.671478,422.023193 
	C256.027252,422.544281 254.524933,423.513153 252.957199,424.275574 
	C254.651413,425.062073 256.313934,425.933807 258.059204,426.583069 
	C258.581818,426.777527 259.335541,426.350677 260.775299,426.085449 
z"/>
<path fill="#28292A" opacity="1.000000" stroke="none" 
	d="
M150.658890,113.566208 
	C182.556671,105.132866 214.098434,96.923508 245.602173,88.570686 
	C280.798828,79.238731 315.850250,69.326294 351.202393,60.632191 
	C362.523621,57.847973 374.581848,57.568920 386.337219,57.178417 
	C398.310883,56.780670 406.829956,63.254459 408.749115,75.074471 
	C410.517700,85.967033 411.571075,97.358498 410.442719,108.272049 
	C405.691833,154.222046 393.605743,198.760117 382.883392,243.542542 
	C380.904510,251.807343 374.167419,254.925949 366.639252,250.630798 
	C365.363678,249.903030 364.924530,246.353561 365.289734,244.321762 
	C368.040985,229.013596 367.407196,213.778076 363.857697,198.781815 
	C358.155426,174.690277 340.578461,160.150330 316.301147,156.826782 
	C294.025269,153.777252 275.390961,160.657745 258.737762,174.734787 
	C255.694305,177.307404 252.150833,179.615051 249.982224,182.819290 
	C246.756393,187.585632 244.397354,185.793442 240.753082,183.491943 
	C234.608932,179.611649 228.279053,175.707382 221.515579,173.185715 
	C201.540146,165.738144 183.626801,171.128082 167.173309,183.389908 
	C148.747452,197.121613 141.122803,216.004929 141.010117,238.431335 
	C140.947144,250.960983 140.761261,251.220993 128.242188,253.080200 
	C127.420418,253.202225 126.610062,253.399261 125.791649,253.546066 
	C118.423431,254.867905 116.812881,254.108261 115.527870,246.676376 
	C111.846771,225.386581 108.229080,204.078491 105.122551,182.699692 
	C103.501938,171.546768 102.747513,160.245422 102.082039,148.982727 
	C101.437889,138.081024 107.067055,130.159622 116.547539,125.977997 
	C127.469994,121.160347 139.012741,117.748993 150.658890,113.566208 
z"/>
<path fill="#28292A" opacity="1.000000" stroke="none" 
	d="
M284.921753,344.203979 
	C275.571411,336.883301 271.839233,326.376038 266.928680,316.579559 
	C264.412323,311.559448 261.864838,306.370026 258.321869,302.093475 
	C253.205444,295.917664 244.993454,296.724182 240.692810,303.601715 
	C237.185715,309.210266 234.448090,315.301910 231.403778,321.197113 
	C229.875641,324.156281 228.300095,327.100403 226.959793,330.145447 
	C221.125778,343.399750 210.423859,349.410950 196.537323,349.854065 
	C182.772568,350.293243 168.973740,350.313629 155.207977,349.905731 
	C138.605469,349.413818 128.813675,340.464081 125.923973,324.052002 
	C124.223045,314.391602 122.528564,304.729858 120.891579,295.058533 
	C120.333755,291.762848 119.066360,290.198303 115.214378,290.733704 
	C109.549660,291.521088 107.768501,289.973816 106.976654,284.080170 
	C106.115326,277.669403 105.557465,271.210480 105.095879,264.756195 
	C104.831543,261.060028 106.867249,258.666992 110.490623,258.096649 
	C125.915695,255.668777 141.331207,253.146332 156.808060,251.094772 
	C165.190582,249.983612 173.708282,249.044891 182.131790,249.270096 
	C198.740494,249.714172 215.371811,250.752151 231.278625,256.321411 
	C232.796036,256.852661 234.347260,257.837555 235.406937,259.033478 
	C240.817444,265.139679 247.889786,265.893127 255.127548,264.647156 
	C258.257751,264.108307 261.040405,261.521362 263.968079,259.842346 
	C267.520660,257.804932 270.830811,255.018463 274.643250,253.815811 
	C293.320465,247.923904 312.479706,247.067947 331.791473,249.701035 
	C350.886871,252.304642 369.956909,255.103775 389.010834,257.996460 
	C394.592163,258.843781 395.903229,261.094360 395.337524,266.619598 
	C394.778992,272.074554 394.492096,277.557220 393.938904,283.012848 
	C393.287872,289.433411 391.152344,291.384521 384.888550,290.631042 
	C381.531952,290.227264 380.446533,291.423187 379.937378,294.466400 
	C378.263916,304.468323 376.660431,314.493988 374.546722,324.407471 
	C370.973541,341.166168 364.765808,347.150208 348.015320,349.665375 
	C331.451416,352.152527 314.817963,351.323029 298.313599,348.966064 
	C293.820831,348.324493 289.570160,345.987305 284.921753,344.203979 
M216.959076,325.413940 
	C224.647293,313.676941 229.177872,300.646362 231.741852,287.011292 
	C233.521362,277.547974 230.471649,272.766083 221.588120,268.922150 
	C218.553543,267.609039 215.348206,266.419281 212.104797,265.904236 
	C191.470886,262.627625 170.882401,261.916504 150.113953,265.632782 
	C136.360870,268.093781 131.265366,275.768524 132.376160,289.300507 
	C133.264633,300.124298 136.367218,310.826965 139.120483,321.418793 
	C141.548630,330.759735 148.189178,336.351990 157.796738,336.839111 
	C169.536118,337.434265 181.340790,337.344391 193.092514,336.899017 
	C202.227036,336.552826 210.065582,332.547882 216.959076,325.413940 
M367.990692,285.696442 
	C367.568451,273.539185 363.607697,268.584167 351.740234,265.978973 
	C333.660431,262.009949 315.397949,262.284698 297.179382,264.578339 
	C290.815033,265.379639 284.407288,266.976379 278.404602,269.234131 
	C270.106567,272.355225 266.904968,277.545532 269.063324,285.963745 
	C272.018036,297.487762 275.642944,308.955688 280.292633,319.889709 
	C283.530212,327.503143 290.070557,332.605743 298.536163,334.993103 
	C313.952148,339.340515 329.510986,338.862335 345.030670,336.554443 
	C351.967590,335.522888 358.185364,331.852386 360.477844,324.601715 
	C364.381775,312.254211 368.522400,299.885620 367.990692,285.696442 
z"/>
<path fill="#28292A" opacity="1.000000" stroke="none" 
	d="
M148.998291,404.037689 
	C149.396271,409.819794 149.599808,415.144989 150.242447,420.416687 
	C150.965073,426.344360 154.696930,430.581604 159.640762,433.263153 
	C173.535904,440.800018 187.445847,448.360016 201.712952,455.147949 
	C219.524719,463.622375 238.531250,468.515656 257.809387,472.580902 
	C267.370758,474.597137 275.883972,473.191650 284.117340,468.407959 
	C303.102997,457.377075 322.051208,446.280792 341.097321,435.355225 
	C348.967743,430.840454 353.110443,424.745209 353.195312,415.238739 
	C353.365967,396.123199 354.354980,377.014984 355.004974,357.903717 
	C355.016296,357.570770 354.906494,357.191681 355.029327,356.911285 
	C355.929047,354.857697 356.873871,352.823822 357.804413,350.783722 
	C358.424438,352.911560 359.444763,355.016663 359.567169,357.172760 
	C359.735107,360.130737 359.092590,363.124359 359.022552,366.108002 
	C358.632202,382.743011 358.439423,399.383728 357.918457,416.014313 
	C357.574951,426.978699 352.799103,434.882843 342.657501,440.370636 
	C324.813507,450.026215 307.218475,460.231018 290.121521,471.148987 
	C277.259430,479.362610 264.255035,480.094543 250.007965,476.572510 
	C219.540604,469.040710 191.173172,456.499420 163.785934,441.487396 
	C160.586136,439.733429 157.418213,437.879944 154.422760,435.802582 
	C146.487564,430.299438 145.695282,421.683380 145.074768,413.164520 
	C143.675064,393.948578 142.401703,374.722626 141.271133,355.489319 
	C141.175644,353.864746 142.536224,352.154572 143.220352,350.484161 
	C144.493439,351.902679 146.168823,353.136292 146.929306,354.790466 
	C147.729889,356.531860 147.872757,358.669128 147.929245,360.644135 
	C148.338455,374.946960 148.653061,389.252502 148.998291,404.037689 
z"/>
<path fill="#28292A" opacity="1.000000" stroke="none" 
	d="
M128.225159,352.499756 
	C129.548264,353.101013 130.615829,353.501251 131.683395,353.901489 
	C131.128494,354.538483 130.573593,355.175507 130.018692,355.812500 
	C124.484299,355.535583 120.701912,351.905151 117.119141,348.122284 
	C106.910629,337.343506 103.750336,323.592499 101.182922,309.629791 
	C100.134094,303.925781 98.888939,298.229095 98.351326,292.471344 
	C98.054070,289.287689 98.790649,285.922882 99.586258,282.772339 
	C99.831436,281.801453 101.810478,281.268402 102.995605,280.534882 
	C103.554451,281.758850 104.706520,283.047424 104.581398,284.196930 
	C103.156944,297.284332 105.696747,309.976654 108.464554,322.590179 
	C111.159843,334.873199 117.848503,344.771698 128.225159,352.499756 
z"/>
<path fill="#28292A" opacity="1.000000" stroke="none" 
	d="
M381.712891,349.730774 
	C378.095734,352.127960 374.729492,354.272766 371.363251,356.417603 
	C370.945068,355.924835 370.526855,355.432068 370.108673,354.939301 
	C370.941376,353.933289 371.612213,352.708740 372.631134,351.954285 
	C386.496796,341.688141 392.057495,327.039124 393.928802,310.711243 
	C394.961914,301.696808 394.925934,292.561798 395.481079,283.487823 
	C395.542053,282.491852 396.127258,280.956635 396.824768,280.720215 
	C397.638275,280.444458 399.370270,281.029053 399.773315,281.756104 
	C400.780548,283.573120 401.990265,285.738678 401.840118,287.664734 
	C400.454132,305.447906 397.624603,322.977539 389.802612,339.219208 
	C387.973785,343.016571 384.617340,346.078247 381.712891,349.730774 
z"/>
<path fill="#28292A" opacity="1.000000" stroke="none" 
	d="
M240.868713,383.341522 
	C239.124954,381.711945 237.730469,380.255646 236.336014,378.799316 
	C237.862839,377.794678 240.138885,375.569977 240.799622,375.975677 
	C246.844894,379.688080 252.753586,379.338104 258.862305,376.427155 
	C259.402710,376.169708 260.165314,376.314270 260.814209,376.378387 
	C261.103149,376.406982 261.365967,376.699615 261.637360,376.877625 
	C259.293304,382.787201 249.213547,386.061493 240.868713,383.341522 
z"/>
<path fill="#28292A" opacity="1.000000" stroke="none" 
	d="
M260.379333,426.146942 
	C259.335541,426.350677 258.581818,426.777527 258.059204,426.583069 
	C256.313934,425.933807 254.651413,425.062073 252.957199,424.275574 
	C254.524933,423.513153 256.027252,422.544281 257.671478,422.023193 
	C265.689819,419.481964 273.758423,417.099365 281.778625,414.563843 
	C283.393585,414.053284 284.875946,413.123260 286.751068,413.076324 
	C279.792633,420.808136 270.702911,424.278015 260.379333,426.146942 
z"/>
<path fill="#000000" opacity="1.000000" stroke="none" 
	d="
M216.721603,325.681366 
	C210.065582,332.547882 202.227036,336.552826 193.092514,336.899017 
	C181.340790,337.344391 169.536118,337.434265 157.796738,336.839111 
	C148.189178,336.351990 141.548630,330.759735 139.120483,321.418793 
	C136.367218,310.826965 133.264633,300.124298 132.376160,289.300507 
	C131.265366,275.768524 136.360870,268.093781 150.113953,265.632782 
	C170.882401,261.916504 191.470886,262.627625 212.104797,265.904236 
	C215.348206,266.419281 218.553543,267.609039 221.588120,268.922150 
	C230.471649,272.766083 233.521362,277.547974 231.741852,287.011292 
	C229.177872,300.646362 224.647293,313.676941 216.721603,325.681366 
M193.922119,295.424866 
	C194.171555,294.132507 194.328796,292.814056 194.686279,291.552307 
	C196.286255,285.905182 195.379349,284.757294 189.451920,285.056580 
	C183.176224,285.373413 177.288620,290.549530 176.193619,296.712708 
	C174.741318,304.886963 177.856979,311.450836 184.692856,314.618042 
	C190.798615,317.446960 199.938690,315.611359 203.532471,310.834412 
	C207.607147,305.418243 208.241302,295.778381 204.443085,291.645081 
	C203.747223,290.887817 201.298248,291.020508 200.088440,291.615906 
	C197.970398,292.658356 196.185532,294.377716 193.922119,295.424866 
z"/>
<path fill="#000000" opacity="1.000000" stroke="none" 
	d="
M367.993042,286.164612 
	C368.522400,299.885620 364.381775,312.254211 360.477844,324.601715 
	C358.185364,331.852386 351.967590,335.522888 345.030670,336.554443 
	C329.510986,338.862335 313.952148,339.340515 298.536163,334.993103 
	C290.070557,332.605743 283.530212,327.503143 280.292633,319.889709 
	C275.642944,308.955688 272.018036,297.487762 269.063324,285.963745 
	C266.904968,277.545532 270.106567,272.355225 278.404602,269.234131 
	C284.407288,266.976379 290.815033,265.379639 297.179382,264.578339 
	C315.397949,262.284698 333.660431,262.009949 351.740234,265.978973 
	C363.607697,268.584167 367.568451,273.539185 367.993042,286.164612 
M324.201904,293.678711 
	C318.969971,284.458038 316.869415,295.965179 312.534027,295.257233 
	C312.893585,293.440460 313.122375,291.511139 313.671936,289.678009 
	C314.636292,286.461395 313.679993,285.134613 310.221954,284.977875 
	C301.441284,284.579895 294.646057,290.374756 294.081696,299.044250 
	C293.516083,307.732910 300.346832,315.574738 308.803162,315.944672 
	C320.593597,316.460510 327.600739,306.836548 324.201904,293.678711 
z"/>
<path fill="#28292A" opacity="1.000000" stroke="none" 
	d="
M194.091599,295.619171 
	C196.185532,294.377716 197.970398,292.658356 200.088440,291.615906 
	C201.298248,291.020508 203.747223,290.887817 204.443085,291.645081 
	C208.241302,295.778381 207.607147,305.418243 203.532471,310.834412 
	C199.938690,315.611359 190.798615,317.446960 184.692856,314.618042 
	C177.856979,311.450836 174.741318,304.886963 176.193619,296.712708 
	C177.288620,290.549530 183.176224,285.373413 189.451920,285.056580 
	C195.379349,284.757294 196.286255,285.905182 194.686279,291.552307 
	C194.328796,292.814056 194.171555,294.132507 194.091599,295.619171 
z"/>
<path fill="#28292A" opacity="1.000000" stroke="none" 
	d="
M324.367249,294.009888 
	C327.600739,306.836548 320.593597,316.460510 308.803162,315.944672 
	C300.346832,315.574738 293.516083,307.732910 294.081696,299.044250 
	C294.646057,290.374756 301.441284,284.579895 310.221954,284.977875 
	C313.679993,285.134613 314.636292,286.461395 313.671936,289.678009 
	C313.122375,291.511139 312.893585,293.440460 312.534027,295.257233 
	C316.869415,295.965179 318.969971,284.458038 324.367249,294.009888 
z"/>
</svg>